# xmcd CD database file
#
# Track frame offsets:
#	150
#	35561
#	83026
#	130022
#	184741
#	321915
#
# Disc length: 4621 seconds
#
# Revision: 0
# Processed by: cddbd v1.5.2PL0 Copyright (c) Steve Scherf et al.
# Submitted via: CDex 1.70beta2
#
DISCID=48120b06
DTITLE=Various Artist - Freedom of the City 2004 - Small Groups
DYEAR=2004
DGENRE=Jazz
TTITLE0=Tension Sort
TTITLE1=Geiger Release
TTITLE2=Heart Sliced Open
TTITLE3=Pop Goes the Drunkard
TTITLE4=The Very First Time
TTITLE5=The End of the Very First Time
EXTD=YEAR: 2004
EXTT0=
EXTT1=
EXTT2=
EXTT3=
EXTT4=
EXTT5=
PLAYORDER=
